<svg width="900" height="200" viewBox="0 0 900 200" fill="none" xmlns="http://www.w3.org/2000/svg">
<path d="M0 12C0 5.37258 5.37258 0 12 0H888C894.627 0 900 5.37258 900 12V188C900 194.627 894.627 200 888 200H12C5.37257 200 0 194.627 0 188V12Z" fill="#393939"/>
<path d="M0 114H900V132H0V114Z" fill="#DCD8C0"/>
<path d="M177.712 96.248C171.696 96.248 166.32 94.776 161.584 91.832C156.912 88.888 153.232 84.792 150.544 79.544C147.856 74.296 146.512 68.216 146.512 61.304C146.512 54.392 147.856 48.312 150.544 43.064C153.232 37.816 156.912 33.72 161.584 30.776C166.32 27.832 171.696 26.36 177.712 26.36C182.384 26.36 186.608 27.192 190.384 28.856C194.224 30.456 197.52 32.76 200.272 35.768L196.24 40.184C191.696 34.872 185.52 32.216 177.712 32.216C172.72 32.216 168.336 33.464 164.56 35.96C160.784 38.392 157.84 41.784 155.728 46.136C153.616 50.488 152.56 55.544 152.56 61.304C152.56 67 153.616 72.056 155.728 76.472C157.84 80.888 160.784 84.344 164.56 86.84C168.336 89.272 172.72 90.488 177.712 90.488C181.232 90.488 184.272 90.136 186.832 89.432C189.392 88.728 191.856 87.672 194.224 86.264V66.296H179.824V60.632H200.176V89.912C198.128 91.32 195.248 92.728 191.536 94.136C187.888 95.544 183.28 96.248 177.712 96.248Z" fill="#DCD8C0"/>
<path d="M237.794 96.152C230.114 96.152 224.162 93.848 219.938 89.24C215.778 84.568 213.698 77.784 213.698 68.888V27.8H219.746V68.696C219.746 75.48 221.25 80.792 224.258 84.632C227.33 88.408 231.842 90.296 237.794 90.296C243.81 90.296 248.322 88.408 251.33 84.632C254.402 80.792 255.938 75.48 255.938 68.696V27.8H261.89V68.888C261.89 77.784 259.81 84.568 255.65 89.24C251.49 93.848 245.538 96.152 237.794 96.152Z" fill="#DCD8C0"/>
<path d="M277.189 95V27.8H283.045V89.336H320.197V95H277.189Z" fill="#DCD8C0"/>
<path d="M324.762 95L351.737 27.8H356.922L383.802 95H377.273L369.305 74.744H339.258L331.289 95H324.762ZM341.273 69.08H367.193L354.329 36.152L341.273 69.08Z" fill="#DCD8C0"/>
<path d="M393.72 95V27.8H399.576L422.712 62.456L445.56 27.8H451.608V95H445.56V38.072L424.344 70.424H421.08L399.672 38.072V95H393.72Z" fill="#DCD8C0"/>
<path d="M494.689 95V27.8H500.545V95H494.689Z" fill="#DCD8C0"/>
<path d="M538.798 96.152C533.678 96.152 529.006 95.256 524.782 93.464C520.558 91.608 517.006 88.728 514.126 84.824L518.83 81.56C521.198 84.376 524.014 86.584 527.278 88.184C530.606 89.72 534.478 90.488 538.894 90.488C541.902 90.488 544.654 90.04 547.15 89.144C549.71 88.248 551.758 86.872 553.294 85.016C554.83 83.16 555.598 80.856 555.598 78.104C555.598 75.672 555.086 73.56 554.062 71.768C553.102 69.976 551.182 68.408 548.302 67.064C545.422 65.72 541.134 64.536 535.438 63.512C522.894 61.144 516.622 54.936 516.622 44.888C516.622 41.24 517.518 38.04 519.31 35.288C521.102 32.472 523.598 30.296 526.798 28.76C529.998 27.16 533.71 26.36 537.934 26.36C542.414 26.36 546.446 27.224 550.03 28.952C553.614 30.616 556.878 32.856 559.822 35.672L555.598 39.704C553.038 37.464 550.35 35.672 547.534 34.328C544.718 32.92 541.486 32.216 537.838 32.216C533.486 32.216 529.87 33.304 526.99 35.48C524.174 37.592 522.766 40.664 522.766 44.696C522.766 48.216 523.886 51.064 526.126 53.24C528.43 55.416 532.558 57.048 538.51 58.136C546.766 59.608 552.686 61.912 556.27 65.048C559.854 68.184 561.646 72.504 561.646 78.008C561.646 81.784 560.622 85.048 558.574 87.8C556.59 90.488 553.87 92.568 550.414 94.04C546.958 95.448 543.086 96.152 538.798 96.152Z" fill="#DCD8C0"/>
<path d="M575.22 95V27.8H581.076V89.336H618.228V95H575.22Z" fill="#DCD8C0"/>
<path d="M622.793 95L649.769 27.8H654.953L681.833 95H675.305L667.337 74.744H637.289L629.321 95H622.793ZM639.305 69.08H665.225L652.361 36.152L639.305 69.08Z" fill="#DCD8C0"/>
<path d="M691.751 95V27.8H697.607L720.744 62.456L743.591 27.8H749.64V95H743.591V38.072L722.375 70.424H719.111L697.703 38.072V95H691.751Z" fill="#DCD8C0"/>
<path d="M247.276 174V148.8H262.324V150.024H248.5V160.464H261.1V161.76H248.5V174H247.276Z" fill="#DCD8C0"/>
<path d="M275.175 174.396C272.415 174.396 270.267 173.52 268.731 171.768C267.219 169.992 266.463 167.436 266.463 164.1V148.8H267.723V164.1C267.723 166.86 268.335 169.068 269.559 170.724C270.807 172.356 272.679 173.172 275.175 173.172C277.695 173.172 279.567 172.356 280.791 170.724C282.015 169.068 282.627 166.86 282.627 164.1V148.8H283.887V164.1C283.887 167.436 283.119 169.992 281.583 171.768C280.071 173.52 277.935 174.396 275.175 174.396Z" fill="#DCD8C0"/>
<path d="M290.096 174V148.8H291.32V172.74H305.648V174H290.096Z" fill="#DCD8C0"/>
<path d="M310.1 174V148.8H311.324V172.74H325.652V174H310.1Z" fill="#DCD8C0"/>
<path d="M347.97 174.396C346.146 174.396 344.49 174.108 343.002 173.532C341.514 172.956 340.23 172.092 339.15 170.94L340.05 170.076C341.994 172.14 344.634 173.172 347.97 173.172C349.098 173.172 350.202 172.992 351.282 172.632C352.386 172.248 353.286 171.672 353.982 170.904C354.702 170.112 355.062 169.116 355.062 167.916C355.062 166.908 354.858 166.02 354.45 165.252C354.042 164.484 353.262 163.824 352.11 163.272C350.982 162.696 349.314 162.24 347.106 161.904C342.306 161.112 339.906 158.82 339.906 155.028C339.906 153.708 340.23 152.544 340.878 151.536C341.55 150.528 342.462 149.748 343.614 149.196C344.766 148.62 346.098 148.332 347.61 148.332C349.002 148.332 350.31 148.56 351.534 149.016C352.782 149.448 354.03 150.132 355.278 151.068L354.522 152.076C353.394 151.236 352.278 150.612 351.174 150.204C350.07 149.796 348.882 149.592 347.61 149.592C345.786 149.592 344.262 150.06 343.038 150.996C341.814 151.932 341.202 153.276 341.202 155.028C341.202 156.636 341.694 157.896 342.678 158.808C343.662 159.696 345.21 160.308 347.322 160.644C350.538 161.172 352.83 161.988 354.198 163.092C355.59 164.196 356.286 165.804 356.286 167.916C356.286 169.26 355.902 170.424 355.134 171.408C354.39 172.368 353.382 173.112 352.11 173.64C350.862 174.144 349.482 174.396 347.97 174.396Z" fill="#DCD8C0"/>
<path d="M368.692 174V150.024H360.052V148.8H378.592V150.024H369.952V174H368.692Z" fill="#DCD8C0"/>
<path d="M377.403 174L387.735 148.8H388.815L399.147 174H397.815L394.323 165.36H382.263L378.735 174H377.403ZM382.731 164.136H393.819L388.311 150.492L382.731 164.136Z" fill="#DCD8C0"/>
<path d="M412.182 174.396C409.926 174.396 407.946 173.856 406.242 172.776C404.538 171.696 403.206 170.184 402.246 168.24C401.31 166.272 400.842 163.98 400.842 161.364C400.842 158.748 401.31 156.468 402.246 154.524C403.206 152.58 404.538 151.068 406.242 149.988C407.946 148.884 409.926 148.332 412.182 148.332C414.102 148.332 415.83 148.74 417.366 149.556C418.902 150.348 420.174 151.488 421.182 152.976L420.138 153.66C419.226 152.34 418.086 151.332 416.718 150.636C415.374 149.94 413.862 149.592 412.182 149.592C410.238 149.592 408.498 150.06 406.962 150.996C405.45 151.932 404.25 153.276 403.362 155.028C402.498 156.78 402.066 158.892 402.066 161.364C402.066 163.836 402.498 165.96 403.362 167.736C404.25 169.488 405.45 170.832 406.962 171.768C408.498 172.704 410.238 173.172 412.182 173.172C413.862 173.172 415.374 172.824 416.718 172.128C418.086 171.408 419.226 170.412 420.138 169.14L421.182 169.824C420.174 171.264 418.902 172.392 417.366 173.208C415.83 174 414.102 174.396 412.182 174.396Z" fill="#DCD8C0"/>
<path d="M426.327 174V148.8H427.551V159.888L440.943 148.8H442.887L428.415 160.644L443.895 174H442.023L427.551 161.4V174H426.327Z" fill="#DCD8C0"/>
<path d="M458.108 174V148.8H464.984C467.192 148.8 469.064 149.172 470.6 149.916C472.16 150.636 473.42 151.608 474.38 152.832C475.364 154.032 476.072 155.388 476.504 156.9C476.96 158.388 477.188 159.888 477.188 161.4C477.188 162.936 476.96 164.448 476.504 165.936C476.072 167.424 475.364 168.78 474.38 170.004C473.42 171.204 472.16 172.176 470.6 172.92C469.064 173.64 467.192 174 464.984 174H458.108ZM459.332 172.74H464.984C467 172.74 468.704 172.416 470.096 171.768C471.488 171.12 472.616 170.256 473.48 169.176C474.344 168.072 474.968 166.848 475.352 165.504C475.736 164.16 475.928 162.792 475.928 161.4C475.928 160.008 475.736 158.64 475.352 157.296C474.968 155.952 474.344 154.74 473.48 153.66C472.616 152.556 471.488 151.68 470.096 151.032C468.704 150.36 467 150.024 464.984 150.024H459.332V172.74Z" fill="#DCD8C0"/>
<path d="M482.331 174V148.8H497.379V150.024H483.555V160.464H496.155V161.76H483.555V172.74H497.847V174H482.331Z" fill="#DCD8C0"/>
<path d="M510.238 174L500.626 148.8H501.958L510.742 171.876L519.49 148.8H520.822L511.21 174H510.238Z" fill="#DCD8C0"/>
<path d="M524.975 174V148.8H540.023V150.024H526.199V160.464H538.799V161.76H526.199V172.74H540.491V174H524.975Z" fill="#DCD8C0"/>
<path d="M545.682 174V148.8H546.906V172.74H561.234V174H545.682Z" fill="#DCD8C0"/>
<path d="M575.658 174.396C573.402 174.396 571.422 173.856 569.718 172.776C568.014 171.696 566.682 170.184 565.722 168.24C564.786 166.272 564.318 163.98 564.318 161.364C564.318 158.748 564.786 156.468 565.722 154.524C566.682 152.58 568.014 151.068 569.718 149.988C571.422 148.884 573.402 148.332 575.658 148.332C577.914 148.332 579.894 148.884 581.598 149.988C583.302 151.068 584.622 152.58 585.558 154.524C586.518 156.468 586.998 158.748 586.998 161.364C586.998 163.98 586.518 166.272 585.558 168.24C584.622 170.184 583.302 171.696 581.598 172.776C579.894 173.856 577.914 174.396 575.658 174.396ZM575.658 173.172C577.602 173.172 579.33 172.704 580.842 171.768C582.378 170.832 583.578 169.488 584.442 167.736C585.306 165.96 585.738 163.836 585.738 161.364C585.738 158.892 585.306 156.78 584.442 155.028C583.578 153.276 582.378 151.932 580.842 150.996C579.33 150.06 577.602 149.592 575.658 149.592C573.714 149.592 571.974 150.06 570.438 150.996C568.926 151.932 567.726 153.276 566.838 155.028C565.974 156.78 565.542 158.892 565.542 161.364C565.542 163.836 565.974 165.96 566.838 167.736C567.726 169.488 568.926 170.832 570.438 171.768C571.974 172.704 573.714 173.172 575.658 173.172Z" fill="#DCD8C0"/>
<path d="M592.159 174V148.764H602.851C605.251 148.764 607.027 149.316 608.179 150.42C609.331 151.524 609.907 153.048 609.907 154.992C609.907 156.96 609.331 158.496 608.179 159.6C607.027 160.704 605.251 161.256 602.851 161.256H593.383V174H592.159ZM593.383 159.996H602.851C604.843 159.996 606.307 159.588 607.243 158.772C608.179 157.956 608.647 156.696 608.647 154.992C608.647 153.288 608.179 152.04 607.243 151.248C606.307 150.432 604.843 150.024 602.851 150.024H593.383V159.996Z" fill="#DCD8C0"/>
<path d="M614.729 174V148.8H629.777V150.024H615.953V160.464H628.553V161.76H615.953V172.74H630.245V174H614.729Z" fill="#DCD8C0"/>
<path d="M635.436 174V148.764H646.128C648.528 148.764 650.304 149.316 651.456 150.42C652.608 151.524 653.184 153.048 653.184 154.992C653.184 156.936 652.62 158.46 651.492 159.564C650.388 160.644 648.66 161.208 646.308 161.256L653.292 174H651.852L644.832 161.256H636.66V174H635.436ZM636.66 159.996H646.128C648.12 159.996 649.584 159.588 650.52 158.772C651.456 157.956 651.924 156.696 651.924 154.992C651.924 153.288 651.456 152.04 650.52 151.248C649.584 150.432 648.12 150.024 646.128 150.024H636.66V159.996Z" fill="#DCD8C0"/>
</svg>
